<?xml version="1.0" encoding="UTF-8"?>
<svg xmlns="http://www.w3.org/2000/svg" width="460" height="460" viewBox="0 0 460 460" role="img" aria-label="Marshall Fit logo">
  <path d="M 347 126 L 366 153 L 380 187 L 385 214 L 385 243 L 381 266 L 367 301 L 351 325 L 335 342 L 311 360 L 287 372 L 253 381 L 216 382 L 189 377 L 167 369 L 145 357 L 119 335 L 146 309 L 187 309 L 188 227 L 230 265 L 271 227 L 272 309 L 315 309 L 315 149 L 342 123 Z
M 342 121 L 314 147 L 296 147 L 230 207 L 165 148 L 144 148 L 145 307 L 117 333 L 96 305 L 83 276 L 76 242 L 76 213 L 81 186 L 94 154 L 107 134 L 131 109 L 154 93 L 178 82 L 204 75 L 238 73 L 266 77 L 295 87 L 322 103 Z
M 447 23 L 366 98 L 334 71 L 307 56 L 248 40 L 209 40 L 177 46 L 136 63 L 100 89 L 73 120 L 57 147 L 43 189 L 39 220 L 40 250 L 49 290 L 67 328 L 91 359 L 7 440 L 92 360 L 120 384 L 152 402 L 209 417 L 248 417 L 283 410 L 317 396 L 352 372 L 381 341 L 397 315 L 411 279 L 417 246 L 416 202 L 408 168 L 389 128 L 367 100 Z" fill="#FFFFFF" fill-rule="evenodd"/>
</svg>
