<svg xmlns="http://www.w3.org/2000/svg" viewBox="0 0 1600 280" role="img" aria-label="MarshallFit">
  <rect width="1600" height="280" rx="52" fill="#06070a"/>
  <defs>
    <linearGradient id="accent" x1="0" x2="1">
      <stop offset="0" stop-color="#ef4444"/>
      <stop offset="0.55" stop-color="#f59e0b"/>
      <stop offset="1" stop-color="#22c55e"/>
    </linearGradient>
  </defs>
  <circle cx="150" cy="140" r="86" fill="none" stroke="#f9fafb" stroke-width="18"/>
  <path d="M86 180V98h31l33 36 33-36h31v82h-31v-43l-33 34-33-34v43z" fill="#f9fafb"/>
  <path d="M58 236 242 44" stroke="#ef4444" stroke-width="8" stroke-linecap="round"/>
  <text x="320" y="181" fill="#f9fafb" font-family="Impact, Haettenschweiler, 'Arial Black', sans-serif" font-size="116" font-weight="900" letter-spacing="8">MARSHALL FIT</text>
  <rect x="320" y="205" width="810" height="8" rx="4" fill="url(#accent)" opacity=".88"/>
  <circle cx="1450" cy="140" r="86" fill="none" stroke="#f9fafb" stroke-width="18"/>
  <path d="M1386 180V98h31l33 36 33-36h31v82h-31v-43l-33 34-33-34v43z" fill="#f9fafb"/>
  <path d="M1358 236 1542 44" stroke="#ef4444" stroke-width="8" stroke-linecap="round"/>
</svg>
