<?xml version="1.0" encoding="UTF-8"?>
<svg xmlns="http://www.w3.org/2000/svg" width="2048" height="409" viewBox="0 0 2048 409" role="img" aria-label="Marshall Fit logo">
  <path d="M 93 308 L 78 321 L 64 335 L 64 336 L 56 344 L 72 328 L 73 328 L 91 311 Z
M 1731 307 L 1720 317 L 1712 326 L 1707 330 L 1694 344 L 1711 327 L 1712 327 Z
M 600 181 L 602 190 L 604 219 L 606 228 L 607 238 L 607 242 L 605 244 L 595 244 L 593 241 L 594 230 L 596 219 L 596 208 L 598 199 L 598 190 Z
M 1074 178 L 1076 186 L 1078 217 L 1080 227 L 1081 237 L 1080 244 L 1068 243 L 1068 235 L 1070 225 L 1070 213 L 1072 190 Z
M 717 145 L 723 145 L 726 148 L 727 150 L 727 184 L 726 186 L 722 189 L 716 188 Z
M 292 123 L 272 142 L 257 142 L 203 191 L 149 142 L 132 142 L 132 269 L 112 289 L 132 271 L 165 271 L 167 205 L 204 237 L 240 204 L 241 271 L 274 271 L 274 148 L 275 141 Z
M 311 108 L 295 124 L 314 150 L 324 174 L 329 199 L 328 225 L 325 239 L 316 262 L 301 285 L 286 300 L 256 319 L 237 326 L 213 330 L 185 329 L 161 323 L 136 311 L 112 291 L 95 309 L 115 326 L 138 339 L 164 349 L 192 354 L 214 354 L 243 349 L 275 336 L 300 319 L 319 300 L 338 269 L 347 243 L 351 216 L 350 190 L 344 164 L 330 133 Z
M 1947 107 L 1931 123 L 1947 142 L 1960 168 L 1966 189 L 1967 221 L 1963 241 L 1952 266 L 1942 281 L 1927 297 L 1910 310 L 1893 319 L 1870 327 L 1850 330 L 1824 329 L 1798 322 L 1774 310 L 1750 290 L 1733 307 L 1753 325 L 1781 341 L 1802 349 L 1830 354 L 1859 353 L 1890 346 L 1920 332 L 1945 313 L 1964 291 L 1975 272 L 1986 242 L 1989 225 L 1989 195 L 1983 166 L 1967 132 Z
M 1533 106 L 1533 146 L 1555 146 L 1557 148 L 1557 312 L 1602 311 L 1601 148 L 1603 146 L 1626 146 L 1625 106 Z
M 1475 106 L 1475 312 L 1520 312 L 1520 106 Z
M 1381 106 L 1381 312 L 1426 312 L 1427 226 L 1453 226 L 1452 187 L 1426 186 L 1427 146 L 1461 146 L 1462 144 L 1462 108 L 1461 106 Z
M 1236 106 L 1236 312 L 1312 312 L 1312 272 L 1306 271 L 1305 272 L 1282 272 L 1280 270 L 1280 106 Z
M 1145 106 L 1145 312 L 1222 312 L 1222 272 L 1219 271 L 1196 272 L 1190 270 L 1190 106 Z
M 1045 106 L 1034 195 L 1034 204 L 1031 220 L 1031 229 L 1029 236 L 1026 271 L 1020 312 L 1061 312 L 1063 288 L 1065 282 L 1085 283 L 1088 312 L 1132 312 L 1124 257 L 1122 232 L 1119 217 L 1106 106 Z
M 904 106 L 905 312 L 949 312 L 949 231 L 951 229 L 962 230 L 962 312 L 1008 312 L 1008 106 L 962 106 L 961 182 L 950 181 L 949 106 Z
M 671 106 L 671 312 L 716 311 L 717 226 L 723 226 L 727 232 L 728 312 L 773 312 L 771 225 L 764 210 L 755 204 L 765 196 L 771 182 L 772 142 L 769 126 L 759 113 L 745 107 Z
M 571 106 L 567 148 L 546 311 L 587 312 L 589 284 L 591 282 L 611 283 L 614 312 L 658 312 L 650 247 L 648 240 L 639 159 L 634 130 L 632 106 Z
M 413 106 L 413 312 L 451 312 L 452 204 L 465 312 L 484 311 L 496 206 L 497 312 L 534 312 L 534 106 L 482 106 L 475 193 L 466 106 Z
M 826 103 L 804 110 L 794 121 L 790 131 L 788 144 L 788 168 L 791 185 L 799 201 L 841 244 L 844 257 L 843 273 L 840 277 L 835 277 L 832 274 L 831 241 L 786 242 L 786 277 L 788 288 L 794 301 L 807 311 L 824 315 L 857 314 L 871 308 L 881 299 L 885 292 L 889 274 L 889 238 L 886 223 L 876 206 L 836 169 L 833 162 L 833 144 L 836 141 L 842 142 L 844 146 L 844 168 L 887 168 L 887 140 L 882 121 L 870 109 L 848 103 Z
M 1986 65 L 1944 105 L 1903 75 L 1855 61 L 1826 61 L 1779 75 L 1746 96 L 1711 140 L 1700 167 L 1694 199 L 1701 254 L 1731 305 L 1747 286 L 1732 266 L 1721 239 L 1717 216 L 1719 184 L 1732 148 L 1760 114 L 1806 89 L 1851 84 L 1888 93 L 1929 121 L 1908 142 L 1893 142 L 1841 191 L 1787 142 L 1770 142 L 1770 268 L 1750 288 L 1769 271 L 1802 271 L 1805 205 L 1841 237 L 1877 204 L 1878 270 L 1912 271 L 1912 140 Z
M 352 64 L 308 105 L 288 88 L 266 75 L 239 65 L 219 61 L 188 61 L 168 65 L 134 79 L 105 99 L 86 119 L 73 139 L 60 170 L 55 194 L 55 224 L 61 252 L 73 280 L 92 306 L 109 288 L 94 268 L 84 246 L 78 216 L 79 190 L 82 176 L 92 151 L 107 129 L 123 113 L 144 99 L 168 89 L 194 84 L 214 84 L 233 87 L 251 93 L 270 103 L 293 121 Z" fill="#000000" fill-rule="evenodd"/>
</svg>
